<?xml version="1.0" encoding="UTF-8"?>
<svg width="128px" height="32px" viewBox="0 0 128 32" version="1.1" xmlns="http://www.w3.org/2000/svg" xmlns:xlink="http://www.w3.org/1999/xlink">
    <title>open-demo-button</title>
    <defs>
        <path d="M10.6908736,5.97727273 C10.6908736,7.23183002 10.4571644,8.30493904 9.98974609,9.19659979 C9.52232777,10.0882605 8.88559422,10.7708333 8.07954545,11.2443182 C7.27349669,11.717803 6.36212713,11.9545455 5.34543679,11.9545455 C4.32572798,11.9545455 3.41321911,11.7170484 2.60791016,11.2420543 C1.80260121,10.7670603 1.16662228,10.0837328 0.699973366,9.19207209 C0.233324455,8.30041134 0,7.22881155 0,5.97727273 C0,4.72271544 0.233324455,3.64960642 0.699973366,2.75794567 C1.16662228,1.86628492 1.80260121,1.18371212 2.60791016,0.710227273 C3.41321911,0.236742424 4.32572798,0 5.34543679,0 C6.36212713,0 7.27349669,0.236742424 8.07954545,0.710227273 C8.88559422,1.18371212 9.52232777,1.86628492 9.98974609,2.75794567 C10.4571644,3.64960642 10.6908736,4.72271544 10.6908736,5.97727273 Z M8.57270952,5.97727273 C8.57270952,5.09392756 8.43539891,4.34847005 8.1607777,3.74090021 C7.88615649,3.13333037 7.50622929,2.6731179 7.02099609,2.36026278 C6.5357629,2.04740767 5.97724313,1.89098011 5.34543679,1.89098011 C4.71363045,1.89098011 4.15511068,2.04740767 3.66987749,2.36026278 C3.18464429,2.6731179 2.80471709,3.13333037 2.53009588,3.74090021 C2.25547467,4.34847005 2.11816406,5.09392756 2.11816406,5.97727273 C2.11816406,6.8606179 2.25547467,7.6060754 2.53009588,8.21364524 C2.80471709,8.82121508 3.18464429,9.28142756 3.66987749,9.59428267 C4.15511068,9.90713778 4.71363045,10.0635653 5.34543679,10.0635653 C5.97724313,10.0635653 6.5357629,9.90713778 7.02099609,9.59428267 C7.50622929,9.28142756 7.88615649,8.82121508 8.1607777,8.21364524 C8.43539891,7.6060754 8.57270952,6.8606179 8.57270952,5.97727273 Z" id="path-1"></path>
        <filter x="-4.7%" y="-4.2%" width="109.4%" height="116.7%" filterUnits="objectBoundingBox" id="filter-2">
            <feOffset dx="0" dy="1" in="SourceAlpha" result="shadowOffsetOuter1"></feOffset>
            <feColorMatrix values="0 0 0 0 0.690472147   0 0 0 0 0.351189554   0 0 0 0 0.0390495681  0 0 0 0.373361014 0" type="matrix" in="shadowOffsetOuter1"></feColorMatrix>
        </filter>
        <path d="M12.5999423,15.0681818 L12.5999423,3.06818182 L14.6227583,3.06818182 L14.6227583,4.5090554 L14.7454501,4.5090554 C14.8500311,4.30001184 14.99909,4.0748402 15.192627,3.83354048 C15.3861639,3.59224077 15.6475275,3.38541667 15.9767179,3.21306818 C16.3059082,3.0407197 16.7273097,2.95454545 17.2409224,2.95454545 C17.9121464,2.95454545 18.5201009,3.12613932 19.064786,3.46932706 C19.6094712,3.8125148 20.0416593,4.31819661 20.3613503,4.98637251 C20.6810414,5.65454841 20.8408869,6.47425426 20.8408869,7.44549006 C20.8408869,8.40305398 20.6840746,9.21725556 20.3704501,9.88809482 C20.0568256,10.5589341 19.6287953,11.0702977 19.0863592,11.4221857 C18.5439231,11.7740737 17.9302868,11.9500178 17.2454501,11.9500178 C16.7454501,11.9500178 16.3303075,11.8668768 16.0000222,11.7005948 C15.6697369,11.5343129 15.4049701,11.332416 15.2057218,11.0949041 C15.0064734,10.8573923 14.8530495,10.6318063 14.7454501,10.4181463 L14.6590687,10.4181463 L14.6590687,15.0681818 L12.5999423,15.0681818 Z M14.6182306,7.43181818 C14.6182306,7.99698153 14.6985307,8.49186198 14.8591309,8.91645952 C15.019731,9.34105705 15.2526708,9.67172704 15.5579501,9.90846946 C15.8632295,10.1452119 16.2348263,10.2635831 16.6727406,10.2635831 C17.1242084,10.2635831 17.5035437,10.141424 17.8107466,9.89710582 C18.1179495,9.65278764 18.3505342,9.31719046 18.5085005,8.89031428 C18.6664669,8.46343809 18.7454501,7.97727273 18.7454501,7.43181818 C18.7454501,6.89092093 18.6676062,6.41043738 18.5119185,5.99036754 C18.3562308,5.5702977 18.1247855,5.24038234 17.8175826,5.00062145 C17.5103797,4.76086056 17.1287657,4.64098011 16.6727406,4.64098011 C16.2303282,4.64098011 15.8564675,4.75631806 15.5511586,4.98699396 C15.2458496,5.21766986 15.0140344,5.54190341 14.8557129,5.9596946 C14.6973914,6.3774858 14.6182306,6.86819366 14.6182306,7.43181818 Z" id="path-3"></path>
        <filter x="-6.1%" y="-4.1%" width="112.1%" height="116.5%" filterUnits="objectBoundingBox" id="filter-4">
            <feOffset dx="0" dy="1" in="SourceAlpha" result="shadowOffsetOuter1"></feOffset>
            <feColorMatrix values="0 0 0 0 0.690472147   0 0 0 0 0.351189554   0 0 0 0 0.0390495681  0 0 0 0.373361014 0" type="matrix" in="shadowOffsetOuter1"></feColorMatrix>
        </filter>
        <path d="M26.4636647,11.9682173 C25.5863564,11.9682173 24.8308522,11.7846828 24.1971519,11.4176136 C23.5634516,11.0505445 23.0759546,10.5308357 22.7346608,9.85848722 C22.393367,9.18613873 22.2227201,8.3939098 22.2227201,7.48180043 C22.2227201,6.58484257 22.3937369,5.79640152 22.7357705,5.11647727 C23.0778041,4.43655303 23.5581101,3.90625 24.1766885,3.52556818 C24.7952668,3.14488636 25.5212227,2.95454545 26.354556,2.95454545 C26.890896,2.95454545 27.3988416,3.04091205 27.878393,3.21364524 C28.3579444,3.38637843 28.7825715,3.65209221 29.1522744,4.01078658 C29.5219773,4.36948094 29.8125046,4.8264826 30.0238564,5.38179155 C30.2352082,5.9371005 30.3408841,6.59771544 30.3408841,7.36363636 L30.3408841,7.9954723 L23.1863209,7.9954723 L23.1863209,6.60910866 L28.3681391,6.60910866 C28.3666595,6.21363045 28.2827639,5.86172763 28.1164523,5.55340021 C27.9501408,5.2450728 27.7183255,5.00227865 27.4210066,4.82501776 C27.1236877,4.64775687 26.7772892,4.55912642 26.381811,4.55912642 C25.9598768,4.55912642 25.5900111,4.65969756 25.272214,4.86083984 C24.9544169,5.06198213 24.7076277,5.32655658 24.5318465,5.65456321 C24.3560652,5.98256984 24.2666654,6.34164891 24.2636469,6.73180043 L24.2636469,7.94096236 C24.2636469,8.44847893 24.3558877,8.88310843 24.5403692,9.24485085 C24.7248507,9.60659328 24.9837582,9.88349313 25.3170915,10.0755504 C25.6504248,10.2676077 26.0417009,10.3636364 26.4909196,10.3636364 C26.7886232,10.3636364 27.0592642,10.3213926 27.3028426,10.2369052 C27.5464209,10.1524177 27.7564559,10.0262784 27.9329473,9.85848722 C28.1094388,9.69069602 28.2439085,9.48330966 28.3363564,9.23632812 L30.2591192,9.45454545 C30.1379071,9.96058239 29.9072164,10.4020478 29.5670471,10.7789418 C29.2268778,11.1558357 28.7939203,11.4482718 28.2681746,11.65625 C27.7424289,11.8642282 27.1409256,11.9682173 26.4636647,11.9682173 Z" id="path-5"></path>
        <filter x="-6.2%" y="-5.5%" width="112.3%" height="122.2%" filterUnits="objectBoundingBox" id="filter-6">
            <feOffset dx="0" dy="1" in="SourceAlpha" result="shadowOffsetOuter1"></feOffset>
            <feColorMatrix values="0 0 0 0 0.690472147   0 0 0 0 0.351189554   0 0 0 0 0.0390495681  0 0 0 0.373361014 0" type="matrix" in="shadowOffsetOuter1"></feColorMatrix>
        </filter>
        <path d="M34.1363664,6.68181818 L34.1363664,11.7954545 L32.07724,11.7954545 L32.07724,3.06818182 L34.0454573,3.06818182 L34.0454573,4.54998224 L34.1500383,4.54998224 C34.3485468,4.06288471 34.6686226,3.67520419 35.1102656,3.3869407 C35.5519086,3.0986772 36.0984876,2.95454545 36.7500028,2.95454545 C37.3515653,2.95454545 37.876586,3.08314098 38.3250649,3.34033203 C38.7735438,3.59752308 39.1220287,3.97062914 39.3705195,4.45965021 C39.6190102,4.94867128 39.7424862,5.54243608 39.7409616,6.2409446 L39.7409616,11.7954545 L37.681821,11.7954545 L37.681821,6.55912642 C37.6833598,5.97502367 37.532984,5.51839193 37.2306935,5.18923118 C36.928403,4.86007043 36.5121062,4.69549006 35.9818032,4.69549006 C35.6219547,4.69549006 35.3032106,4.77352628 35.025571,4.92959872 C34.7479313,5.08567116 34.5307053,5.31180457 34.373893,5.60799893 C34.2170808,5.9041933 34.1379052,6.26213305 34.1363664,6.68181818 Z" id="path-7"></path>
        <filter x="-6.5%" y="-5.7%" width="113.0%" height="122.6%" filterUnits="objectBoundingBox" id="filter-8">
            <feOffset dx="0" dy="1" in="SourceAlpha" result="shadowOffsetOuter1"></feOffset>
            <feColorMatrix values="0 0 0 0 0.690472147   0 0 0 0 0.351189554   0 0 0 0 0.0390495681  0 0 0 0.373361014 0" type="matrix" in="shadowOffsetOuter1"></feColorMatrix>
        </filter>
        <path d="M49.8409035,11.7954545 L45.8954135,11.7954545 L45.8954135,0.159090909 L49.9181408,0.159090909 C51.0742132,0.159090909 52.0677768,0.391098485 52.8988315,0.855113636 C53.7298861,1.31912879 54.3689131,1.98465613 54.8159124,2.85169567 C55.2629117,3.7187352 55.4864114,4.75603693 55.4864114,5.96360085 C55.4864114,7.17572206 55.2621571,8.21758108 54.8136486,9.08917791 C54.36514,9.96077474 53.7196766,10.6297201 52.8772583,11.0960138 C52.03484,11.5623076 51.0227217,11.7954545 49.8409035,11.7954545 Z M48.0046109,9.97265625 L49.7409391,9.97265625 C50.5484675,9.97265625 51.2234497,9.82417436 51.7658858,9.52721058 C52.3083219,9.2302468 52.7155188,8.78518584 52.9874767,8.1920277 C53.2594346,7.59886955 53.3954135,6.85606061 53.3954135,5.96360085 C53.3954135,5.07575758 53.2598045,4.33694366 52.9885864,3.74715909 C52.7173684,3.15737453 52.3150986,2.71571674 51.7817771,2.42218572 C51.2484556,2.12865471 50.5878555,1.9818892 49.7999767,1.9818892 L48.0046109,1.9818892 L48.0046109,9.97265625 Z" id="path-9"></path>
        <filter x="-5.2%" y="-4.3%" width="110.4%" height="117.2%" filterUnits="objectBoundingBox" id="filter-10">
            <feOffset dx="0" dy="1" in="SourceAlpha" result="shadowOffsetOuter1"></feOffset>
            <feColorMatrix values="0 0 0 0 0.690472147   0 0 0 0 0.351189554   0 0 0 0 0.0390495681  0 0 0 0.373361014 0" type="matrix" in="shadowOffsetOuter1"></feColorMatrix>
        </filter>
        <path d="M61.2636719,11.9682173 C60.3863636,11.9682173 59.6308594,11.7846828 58.9971591,11.4176136 C58.3634588,11.0505445 57.8759618,10.5308357 57.534668,9.85848722 C57.1933742,9.18613873 57.0227273,8.3939098 57.0227273,7.48180043 C57.0227273,6.58484257 57.1937441,5.79640152 57.5357777,5.11647727 C57.8778113,4.43655303 58.3581173,3.90625 58.9766957,3.52556818 C59.595274,3.14488636 60.3212299,2.95454545 61.1545632,2.95454545 C61.6909032,2.95454545 62.1988488,3.04091205 62.6784002,3.21364524 C63.1579516,3.38637843 63.5825787,3.65209221 63.9522816,4.01078658 C64.3219845,4.36948094 64.6125118,4.8264826 64.8238636,5.38179155 C65.0352154,5.9371005 65.1408913,6.59771544 65.1408913,7.36363636 L65.1408913,7.9954723 L57.9863281,7.9954723 L57.9863281,6.60910866 L63.1681463,6.60910866 C63.1666667,6.21363045 63.0827711,5.86172763 62.9164595,5.55340021 C62.750148,5.2450728 62.5183327,5.00227865 62.2210138,4.82501776 C61.923695,4.64775687 61.5772964,4.55912642 61.1818182,4.55912642 C60.759884,4.55912642 60.3900183,4.65969756 60.0722212,4.86083984 C59.7544241,5.06198213 59.5076349,5.32655658 59.3318537,5.65456321 C59.1560724,5.98256984 59.0666726,6.34164891 59.0636541,6.73180043 L59.0636541,7.94096236 C59.0636541,8.44847893 59.1558949,8.88310843 59.3403764,9.24485085 C59.524858,9.60659328 59.7837654,9.88349313 60.1170987,10.0755504 C60.4504321,10.2676077 60.8417081,10.3636364 61.2909268,10.3636364 C61.5886304,10.3636364 61.8592714,10.3213926 62.1028498,10.2369052 C62.3464281,10.1524177 62.5564631,10.0262784 62.7329545,9.85848722 C62.909446,9.69069602 63.0439157,9.48330966 63.1363636,9.23632812 L65.0591264,9.45454545 C64.9379143,9.96058239 64.7072236,10.4020478 64.3670543,10.7789418 C64.0268851,11.1558357 63.5939276,11.4482718 63.0681818,11.65625 C62.5424361,11.8642282 61.9409328,11.9682173 61.2636719,11.9682173 Z" id="path-11"></path>
        <filter x="-6.2%" y="-5.5%" width="112.3%" height="122.2%" filterUnits="objectBoundingBox" id="filter-12">
            <feOffset dx="0" dy="1" in="SourceAlpha" result="shadowOffsetOuter1"></feOffset>
            <feColorMatrix values="0 0 0 0 0.690472147   0 0 0 0 0.351189554   0 0 0 0 0.0390495681  0 0 0 0.373361014 0" type="matrix" in="shadowOffsetOuter1"></feColorMatrix>
        </filter>
        <path d="M66.8772472,11.7954545 L66.8772472,3.06818182 L68.8454645,3.06818182 L68.8454645,4.54998224 L68.9500455,4.54998224 C69.1318637,4.05229048 69.4322454,3.66196141 69.8511907,3.37899503 C70.2701361,3.09602865 70.7712754,2.95454545 71.3546087,2.95454545 C71.9455178,2.95454545 72.4449407,3.09715317 72.8528775,3.38236861 C73.2608143,3.66758404 73.5477609,4.05678859 73.7137174,4.54998224 L73.8046265,4.54998224 C73.9978083,4.06590317 74.3246904,3.67897727 74.7852728,3.38920455 C75.2458552,3.09943182 75.7932036,2.95454545 76.4273182,2.95454545 C77.2303485,2.95454545 77.8848969,3.20814098 78.3909635,3.71533203 C78.89703,4.22252308 79.1500633,4.96286103 79.1500633,5.93634588 L79.1500633,11.7954545 L77.0909368,11.7954545 L77.0909368,6.2545277 C77.0909368,5.71516927 76.9466127,5.31898082 76.6579645,5.06596236 C76.3693163,4.81294389 76.0166589,4.68643466 75.5999922,4.68643466 C75.1030699,4.68643466 74.7159664,4.84077592 74.4386819,5.14945845 C74.1613973,5.45814098 74.022755,5.85833925 74.022755,6.35005327 L74.022755,11.7954545 L72.0045554,11.7954545 L72.0045554,6.17276278 C72.0045554,5.72200521 71.8693311,5.36159446 71.5988825,5.09153054 C71.3284339,4.82146662 70.9757912,4.68643466 70.5409546,4.68643466 C70.2455,4.68643466 69.9763683,4.76180753 69.7335593,4.91255327 C69.4907504,5.06329901 69.2971839,5.27370384 69.1528598,5.54376776 C69.0085357,5.81383168 68.9363736,6.12801847 68.9363736,6.48632812 L68.9363736,11.7954545 L66.8772472,11.7954545 Z" id="path-13"></path>
        <filter x="-4.1%" y="-5.7%" width="108.1%" height="122.6%" filterUnits="objectBoundingBox" id="filter-14">
            <feOffset dx="0" dy="1" in="SourceAlpha" result="shadowOffsetOuter1"></feOffset>
            <feColorMatrix values="0 0 0 0 0.690472147   0 0 0 0 0.351189554   0 0 0 0 0.0390495681  0 0 0 0.373361014 0" type="matrix" in="shadowOffsetOuter1"></feColorMatrix>
        </filter>
        <path d="M85.0500377,11.9682173 C84.1985344,11.9682173 83.4600904,11.7803326 82.8347057,11.4045632 C82.209321,11.0287938 81.7252271,10.5034032 81.3824241,9.82839134 C81.0396211,9.1533795 80.8682195,8.36665483 80.8682195,7.46821733 C80.8682195,6.56516335 81.0396211,5.77500592 81.3824241,5.09774503 C81.7252271,4.42048414 82.209321,3.89396899 82.8347057,3.51819957 C83.4600904,3.14243016 84.1985344,2.95454545 85.0500377,2.95454545 C85.901541,2.95454545 86.6399851,3.14243016 87.2653698,3.51819957 C87.8907545,3.89396899 88.3748483,4.42048414 88.7176514,5.09774503 C89.0604544,5.77500592 89.2318559,6.56516335 89.2318559,7.46821733 C89.2318559,8.36665483 89.0604544,9.1533795 88.7176514,9.82839134 C88.3748483,10.5034032 87.8907545,11.0287938 87.2653698,11.4045632 C86.6399851,11.7803326 85.901541,11.9682173 85.0500377,11.9682173 Z M85.0590931,10.3181818 C85.524292,10.3181818 85.911425,10.1905333 86.2204923,9.93523615 C86.5295595,9.67993904 86.76099,9.33638139 86.9147838,8.90456321 C87.0685776,8.47274503 87.1454745,7.99091501 87.1454745,7.45907315 C87.1454745,6.92575166 87.0685776,6.4424272 86.9147838,6.00909979 C86.76099,5.57577237 86.5295595,5.23032079 86.2204923,4.97274503 C85.911425,4.71516927 85.524292,4.58638139 85.0590931,4.58638139 C84.5879165,4.58638139 84.1962706,4.71516927 83.8841553,4.97274503 C83.57204,5.23032079 83.3390854,5.57577237 83.1852916,6.00909979 C83.0314978,6.4424272 82.9546009,6.92575166 82.9546009,7.45907315 C82.9546009,7.99091501 83.0314978,8.47274503 83.1852916,8.90456321 C83.3390854,9.33638139 83.57204,9.67993904 83.8841553,9.93523615 C84.1962706,10.1905333 84.5879165,10.3181818 85.0590931,10.3181818 Z" id="path-15"></path>
        <filter x="-6.0%" y="-5.5%" width="112.0%" height="122.2%" filterUnits="objectBoundingBox" id="filter-16">
            <feOffset dx="0" dy="1" in="SourceAlpha" result="shadowOffsetOuter1"></feOffset>
            <feColorMatrix values="0 0 0 0 0.690472147   0 0 0 0 0.351189554   0 0 0 0 0.0390495681  0 0 0 0.373361014 0" type="matrix" in="shadowOffsetOuter1"></feColorMatrix>
        </filter>
        <path d="M6.88423731,11.9524191 L1.04332822,6.11151004 C0.57741913,5.64560095 0.267760039,5.10393428 0.114350948,4.48651004 C-0.0390581428,3.8690858 -0.0381111731,3.25450246 0.117191857,2.64276004 C0.272494888,2.03101761 0.581207009,1.49787368 1.04332822,1.04332822 C1.51681307,0.57741913 2.05753277,0.267760039 2.66548731,0.114350948 C3.27344186,-0.0390581428 3.8813964,-0.0381111731 4.48935095,0.117191857 C5.09730549,0.272494888 5.63802519,0.581207009 6.11151004,1.04332822 L6.88423731,1.79332822 L7.65696458,1.04332822 C8.13423731,0.581207009 8.67590398,0.272494888 9.28196458,0.117191857 C9.88802519,-0.0381111731 10.4950328,-0.0390581428 11.1029873,0.114350948 C11.7109419,0.267760039 12.2516616,0.57741913 12.7251464,1.04332822 C13.1872676,1.49787368 13.4959797,2.03101761 13.6512828,2.64276004 C13.8065858,3.25450246 13.8075328,3.8690858 13.6541237,4.48651004 C13.5007146,5.10393428 13.1910555,5.64560095 12.7251464,6.11151004 L6.88423731,11.9524191 Z" id="path-17"></path>
        <filter x="-3.6%" y="-4.2%" width="107.3%" height="116.7%" filterUnits="objectBoundingBox" id="filter-18">
            <feOffset dx="0" dy="1" in="SourceAlpha" result="shadowOffsetOuter1"></feOffset>
            <feColorMatrix values="0 0 0 0 0.690472147   0 0 0 0 0.351189554   0 0 0 0 0.0390495681  0 0 0 0.373361014 0" type="matrix" in="shadowOffsetOuter1"></feColorMatrix>
        </filter>
    </defs>
    <g id="open-demo-button" stroke="none" stroke-width="1" fill="none" fill-rule="evenodd">
        <rect id="Rectangle" fill="#FF820F" x="0" y="0" width="128" height="32" rx="4"></rect>
        <g id="Open-Demo" transform="translate(29.854581, 10.204545)" fill-rule="nonzero">
            <g id="Shape">
                <use fill="black" fill-opacity="1" filter="url(#filter-2)" xlink:href="#path-1"></use>
                <use fill="#FFFFFF" xlink:href="#path-1"></use>
            </g>
            <g id="Shape">
                <use fill="black" fill-opacity="1" filter="url(#filter-4)" xlink:href="#path-3"></use>
                <use fill="#FFFFFF" xlink:href="#path-3"></use>
            </g>
            <g id="Path">
                <use fill="black" fill-opacity="1" filter="url(#filter-6)" xlink:href="#path-5"></use>
                <use fill="#FFFFFF" xlink:href="#path-5"></use>
            </g>
            <g id="Path">
                <use fill="black" fill-opacity="1" filter="url(#filter-8)" xlink:href="#path-7"></use>
                <use fill="#FFFFFF" xlink:href="#path-7"></use>
            </g>
            <g id="Shape">
                <use fill="black" fill-opacity="1" filter="url(#filter-10)" xlink:href="#path-9"></use>
                <use fill="#FFFFFF" xlink:href="#path-9"></use>
            </g>
            <g id="Path">
                <use fill="black" fill-opacity="1" filter="url(#filter-12)" xlink:href="#path-11"></use>
                <use fill="#FFFFFF" xlink:href="#path-11"></use>
            </g>
            <g id="Path">
                <use fill="black" fill-opacity="1" filter="url(#filter-14)" xlink:href="#path-13"></use>
                <use fill="#FFFFFF" xlink:href="#path-13"></use>
            </g>
            <g id="Shape">
                <use fill="black" fill-opacity="1" filter="url(#filter-16)" xlink:href="#path-15"></use>
                <use fill="#FFFFFF" xlink:href="#path-15"></use>
            </g>
        </g>
        <g id="â¤" transform="translate(9.297581, 10.229399)" fill-rule="nonzero">
            <g id="Path">
                <use fill="black" fill-opacity="1" filter="url(#filter-18)" xlink:href="#path-17"></use>
                <use fill="#FFFFFF" xlink:href="#path-17"></use>
            </g>
        </g>
    </g>
</svg>